<svg width="621" height="294" xmlns="http://www.w3.org/2000/svg" xmlns:xlink="http://www.w3.org/1999/xlink" xml:space="preserve" overflow="hidden"><defs><filter id="fx0" x="-10%" y="-10%" width="120%" height="120%" filterUnits="userSpaceOnUse" primitiveUnits="userSpaceOnUse"><feComponentTransfer color-interpolation-filters="sRGB"><feFuncR type="discrete" tableValues="0 0"/><feFuncG type="discrete" tableValues="0 0"/><feFuncB type="discrete" tableValues="0 0"/><feFuncA type="linear" slope="0.4" intercept="0"/></feComponentTransfer><feGaussianBlur stdDeviation="1.77778 1.77778"/></filter><clipPath id="clip1"><rect x="331" y="99" width="621" height="294"/></clipPath><clipPath id="clip2"><rect x="11" y="13" width="601" height="270"/></clipPath><clipPath id="clip3"><rect x="0" y="0" width="623" height="296"/></clipPath><clipPath id="clip4"><rect x="7" y="7" width="609" height="282"/></clipPath><clipPath id="clip5"><rect x="7" y="7" width="609" height="283"/></clipPath><clipPath id="clip6"><rect x="337" y="101" width="609" height="282"/></clipPath><clipPath id="clip7"><rect x="337" y="101" width="609" height="283"/></clipPath></defs><g clip-path="url(#clip1)" transform="translate(-331 -99)"><g clip-path="url(#clip2)" filter="url(#fx0)" transform="translate(330 98)"><g clip-path="url(#clip3)"><g clip-path="url(#clip4)"><g clip-path="url(#clip5)"><path d="M29.5457 122.997 30.8772 122.997C46.9353 121.45 54.4603 116.906 63.3186 103.617L94.2197 56.8922C105.517 39.7217 120.909 30.6444 141.61 30.2029L142.942 30.4185 142.942 48.1384 141.61 48.1384C125.444 49.8002 118.027 54.3405 109.162 67.5183L78.2677 114.248C66.8646 131.527 51.4722 140.496 30.8772 140.938L29.5457 140.717 29.5457 122.997ZM29.5457 30.4185 30.8772 30.2029C53.4609 30.6444 71.4015 42.2683 81.3739 62.7555L67.9702 82.9141C65.4219 61.4275 51.5869 50.1322 30.8755 48.1384L29.544 48.1384 29.544 30.4185ZM142.942 140.717 141.61 140.938C118.908 140.496 100.969 128.646 91.1118 108.38L104.515 88.2315C107.062 109.713 120.791 120.897 141.61 122.997L142.942 122.997 142.942 140.717Z" fill="#0070C0" transform="matrix(1 0 0 1.00136 161.969 -4.6983)"/><path d="M14.5052 64.7061C23.465 60.4938 33.8449 60.1573 43.5141 64.7061L43.5184 64.7061C53.189 69.2535 63.566 68.917 72.5259 64.7061 81.4901 60.4938 91.8685 60.1573 101.532 64.7061L101.542 64.7061C111.207 69.2535 121.587 68.917 130.547 64.7061L130.547 49.0681C121.587 53.2804 111.207 53.6169 101.542 49.0681L101.532 49.0681C91.8685 44.5207 81.4901 44.8572 72.5259 49.0681 63.566 53.2804 53.1876 53.6169 43.5184 49.0681L43.5141 49.0681C33.8435 44.5207 23.465 44.8572 14.5052 49.0681L14.5052 64.7061Z" fill="#0070C0" transform="matrix(1 0 0 1.00136 298.701 8.36204)"/><path d="M14.5052 33.433C23.465 29.2192 33.8449 28.8856 43.5141 33.433L43.5184 33.433C53.189 37.9818 63.566 37.6453 72.5259 33.433 81.4901 29.2192 91.8685 28.8856 101.532 33.433L101.542 33.433C111.207 37.9818 121.587 37.6453 130.547 33.433L130.547 17.792C121.587 22.0029 111.207 22.3394 101.542 17.792L101.532 17.792C91.8685 13.2432 81.4901 13.5797 72.5259 17.792 63.566 22.0029 53.1876 22.3394 43.5184 17.792L43.5141 17.792C33.8435 13.2432 23.465 13.5797 14.5052 17.792L14.5052 33.433Z" fill="#0070C0" transform="matrix(1 0 0 1.00136 298.701 6.64957)"/><path d="M14.5052 127.26C23.465 123.047 33.8449 122.712 43.5141 127.26L43.5184 127.26C53.189 131.807 63.566 131.472 72.5259 127.26 81.4901 123.047 91.8685 122.712 101.532 127.26L101.542 127.26C111.207 131.807 121.587 131.472 130.547 127.26L130.547 111.625C121.587 115.837 111.207 116.172 101.542 111.625L101.532 111.625C91.8685 107.077 81.4901 107.412 72.5259 111.625 63.566 115.837 53.1876 116.172 43.5184 111.625L43.5141 111.625C33.8435 107.077 23.465 107.412 14.5052 111.625L14.5052 127.26Z" fill="#0070C0" transform="matrix(1 0 0 1.00136 298.701 8.36204)"/><path d="M14.5052 95.988C23.465 91.7742 33.8449 91.4377 43.5141 95.988L43.5184 95.988C53.189 100.537 63.566 100.202 72.5259 95.988 81.4901 91.7742 91.8685 91.4377 101.532 95.988L101.542 95.988C111.207 100.537 121.587 100.202 130.547 95.988L130.547 80.3456C121.587 84.5564 111.207 84.893 101.542 80.3456L101.532 80.3456C91.8685 75.7968 81.4901 76.1333 72.5259 80.3456 63.566 84.5564 53.1876 84.893 43.5184 80.3456L43.5141 80.3456C33.8435 75.7968 23.465 76.1333 14.5052 80.3456L14.5052 95.988Z" fill="#0070C0" transform="matrix(1 0 0 1.00136 298.701 8.36204)"/><path d="M-266.864-51.8032-266.864-51.8032C-263.988-51.8032-261.252-51.4073-258.654-50.6155L-258.654-50.6155-258.654-60.7219C-258.654-62.1805-259.522-62.9793-261.258-63.1182L-261.258-63.1182-265.551-63.41-265.551-71.3076-246.963-71.3076-246.963-10.5023C-246.895-8.97423-246.061-8.21016-244.463-8.21016L-244.463-8.21016-240.962-8.00178-240.962 0-257.153 0-257.153-5.89715-257.466-6.00134C-260.466-1.13914-264.995 1.29195-271.052 1.29195L-271.052 1.29195C-278.664 1.29195-283.999-1.23639-287.056-6.29307L-287.056-6.29307C-289.863-10.9052-291.265-16.5454-291.265-23.2135L-291.265-23.2135C-291.265-31.8821-289.112-38.8143-284.805-44.0098-280.513-49.2053-274.532-51.8032-266.864-51.8032ZM-258.654-15.6076-258.654-15.6076-258.654-41.5093C-261.056-42.5789-263.592-43.1138-266.259-43.1138L-266.259-43.1138C-270.662-43.1138-273.88-41.3426-275.907-37.8001-277.949-34.2716-278.971-29.7706-278.971-24.2971L-278.971-24.2971C-278.971-13.1002-275.366-7.50167-268.156-7.50167L-268.156-7.50167C-265.42-7.50167-263.155-8.28658-261.362-9.85636-259.556-11.4262-258.654-13.3432-258.654-15.6076ZM-234.952-50.3029-217.053-50.3029-217.053-8.29352-211.343-8.00178-211.343 0-235.161 0-235.161-7.60586-231.848-7.89759C-229.916-8.10597-228.951-9.17565-228.951-11.1066L-228.951-11.1066-228.951-38.9045C-228.951-40.0437-229.132-40.8147-229.493-41.2175-229.868-41.6066-230.52-41.801-231.452-41.801L-231.452-41.801-234.952-42.0094-234.952-50.3029ZM-229.66-58.9715C-231.049-60.3328-231.743-62.0832-231.743-64.2226-231.743-66.3481-231.049-68.1262-229.66-69.5572-228.257-71.0019-226.423-71.7243-224.158-71.7243-221.881-71.7243-220.026-71.0019-218.595-69.5572-217.163-68.1262-216.448-66.3481-216.448-64.2226-216.448-62.0832-217.163-60.3328-218.595-58.9715-220.026-57.5962-221.881-56.9085-224.158-56.9085-226.423-56.9085-228.257-57.5962-229.66-58.9715ZM-161.044-0.10419C-161.642 7.30023-163.774 12.7389-167.441 16.2119-171.109 19.6711-176.839 21.4006-184.633 21.4006-192.44 21.4006-198.546 20.3031-202.949 18.1082L-202.949 18.1082-202.949 4.20927-193.447 3.39659-193.447 8.21016C-193.447 10.0022-192.614 11.2178-190.947 11.8568-189.28 12.4819-186.981 12.7945-184.049 12.7945L-184.049 12.7945C-179.771 12.7945-176.77 11.5165-175.047 8.96033-173.311 6.39032-172.443 2.77145-172.443-1.89626L-172.443-1.89626-172.443-7.39748C-175.638-3.66055-180.069-1.79207-185.737-1.79207L-185.737-1.79207C-189.21-1.79207-192.26-2.45888-194.885-3.79251-197.525-5.12614-199.581-6.93211-201.053-9.21039L-201.053-9.21039C-203.915-13.7392-205.346-19.0737-205.346-25.214L-205.346-25.214C-205.346-33.9382-202.977-40.5507-198.24-45.0517-193.503-49.5527-187.203-51.8032-179.34-51.8032L-179.34-51.8032C-172.811-51.8032-166.643-50.5738-160.836-48.1149L-160.836-48.1149-160.836-11.0025C-160.836-5.33452-160.905-1.70177-161.044-0.10419L-161.044-0.10419ZM-172.443-20.4004-172.443-20.4004-172.443-41.9052C-174.776-42.711-177.444-43.1138-180.444-43.1138L-180.444-43.1138C-184.515-43.1138-187.633-41.6134-189.801-38.6128-191.968-35.6121-193.051-31.5418-193.051-26.4017L-193.051-26.4017C-193.051-15.8716-189.578-10.6065-182.632-10.6065L-182.632-10.6065C-179.771-10.6065-177.354-11.4887-175.381-13.253-173.422-15.0172-172.443-17.3997-172.443-20.4004ZM-150.934-50.3029-133.034-50.3029-133.034-8.29352-127.324-8.00178-127.324 0-151.142 0-151.142-7.60586-147.829-7.89759C-145.898-8.10597-144.932-9.17565-144.932-11.1066L-144.932-11.1066-144.932-38.9045C-144.932-40.0437-145.113-40.8147-145.474-41.2175-145.849-41.6066-146.502-41.801-147.433-41.801L-147.433-41.801-150.934-42.0094-150.934-50.3029ZM-145.641-58.9715C-147.03-60.3328-147.725-62.0832-147.725-64.2226-147.725-66.3481-147.03-68.1262-145.641-69.5572-144.238-71.0019-142.404-71.7243-140.14-71.7243-137.861-71.7243-136.007-71.0019-134.576-69.5572-133.145-68.1262-132.43-66.3481-132.43-64.2226-132.43-62.0832-133.145-60.3328-134.576-58.9715-136.007-57.5962-137.861-56.9085-140.14-56.9085-142.404-56.9085-144.238-57.5962-145.641-58.9715ZM-110.429-60.9094-110.429-60.9094-103.927-60.9094-103.927-50.3029-90.6119-50.3029-91.6121-41.9052-103.927-41.9052-103.927-15.6076C-103.927-12.6764-103.392-10.6274-102.323-9.46044-101.253-8.29352-99.5999-7.71005-97.3634-7.71005-95.1406-7.71005-92.8901-8.40464-90.6119-9.79385L-90.6119-9.79385-87.6112-2.10464C-90.9453 0.229218-95.1823 1.39614-100.322 1.39614L-100.322 1.39614C-103.323 1.39614-105.858 1.01412-107.928 0.250056-109.998-0.514004-111.533-1.36141-112.533-2.29218-113.534-3.23683-114.298-4.60519-114.826-6.39726-115.353-8.20323-115.652-9.62021-115.722-10.6482-115.791-11.6901-115.826-13.2113-115.826-15.2117L-115.826-15.2117-115.826-41.9052-122.932-41.9052-121.931-49.2193C-118.792-49.4833-116.423-50.5946-114.826-52.5534-113.228-54.5261-111.762-57.3113-110.429-60.9094ZM-38.9003-48.3024-38.9003-48.3024-38.9003-11.1066C-38.9003-10.037-38.7197-9.30068-38.3586-8.89782-37.9974-8.49496-37.3444-8.26574-36.3998-8.21016L-36.3998-8.21016-33.2116-8.00178-33.2116 0-49.111 0-49.111-5.79296-49.4027-5.89715C-52.7368-1.10441-57.3072 1.29195-63.1141 1.29195L-63.1141 1.29195C-69.9212 1.29195-74.9569-0.875195-78.2216-5.20949-81.4863-9.54379-83.1185-15.4757-83.1185-23.0051L-83.1185-23.0051C-83.1185-32.0765-80.9166-39.1477-76.5129-44.2182-72.1092-49.2749-65.5104-51.8032-56.7168-51.8032L-56.7168-51.8032C-51.0489-51.8032-45.1101-50.6363-38.9003-48.3024ZM-50.5071-15.8994-50.5071-15.8994-50.5071-41.801C-52.3825-42.6762-54.9525-43.1138-58.2171-43.1138L-58.2171-43.1138C-62.6765-43.1138-65.9064-41.3148-67.9068-37.7167-69.9073-34.1049-70.9075-29.333-70.9075-23.4011L-70.9075-23.4011C-70.9075-12.607-67.4415-7.20994-60.5093-7.20994L-60.5093-7.20994C-57.578-7.20994-55.1817-8.09208-53.3202-9.85636-51.4448-11.6207-50.5071-13.635-50.5071-15.8994ZM-27.1144-71.3076-9.19372-71.3076-9.19372-8.29352-3.50495-8.00178-3.50495 0-27.3019 0-27.3019-7.60586-24.0095-7.89759C-22.0785-8.10597-21.113-9.17565-21.113-11.1066L-21.113-11.1066-21.113-60.4093C-21.113-61.8819-21.9466-62.6806-23.6136-62.8057L-23.6136-62.8057-27.1144-63.014-27.1144-71.3076ZM27.802-51.8032 27.802-51.8032C32.8031-51.8032 36.7692-50.5877 39.7005-48.1566 42.6455-45.7254 44.1182-42.308 44.1182-37.9043L44.1182-37.9043C44.1182-34.973 43.4791-32.3891 42.2011-30.1526 40.9368-27.916 39.374-26.1656 37.5125-24.9014 35.6371-23.6371 33.3658-22.6023 30.6985-21.7965L30.6985-21.7965C26.2392-20.4629 21.2104-19.7961 15.6118-19.7961L15.6118-19.7961C15.8063-16.2675 16.9038-13.4197 18.9042-11.2525 20.9047-9.08536 23.9747-8.00178 28.1146-8.00178 32.2405-8.00178 36.3733-9.46738 40.5132-12.3986L40.5132-12.3986 44.3057-4.29262C42.9721-3.09792 40.7216-1.86847 37.5542-0.604301 34.3868 0.65987 30.7679 1.29195 26.6976 1.29195L26.6976 1.29195C18.5708 1.29195 12.6042-0.958547 8.7978-5.45955 5.00528-9.96055 3.10903-16.1425 3.10903-24.0054 3.10903-31.8681 5.27618-38.4669 9.61048-43.8014 13.9448-49.136 20.0086-51.8032 27.802-51.8032ZM23.2594-28.9648C25.6905-29.3955 27.941-30.3609 30.0109-31.8613 32.0807-33.3616 33.1157-35.1468 33.1157-37.2166L33.1157-37.2166C33.1157-41.2732 31.1153-43.3013 27.1144-43.3013L27.1144-43.3013C23.3775-43.3013 20.5087-41.8218 18.5083-38.8628 16.5078-35.8899 15.4034-32.3405 15.1951-28.2146L15.1951-28.2146C18.1401-28.2703 20.8282-28.5203 23.2594-28.9648ZM96.2173-51.8032 96.2173-51.8032C99.0929-51.8032 101.83-51.4073 104.427-50.6155L104.427-50.6155 104.427-60.7219C104.427-62.1805 103.559-62.9793 101.823-63.1182L101.823-63.1182 97.5301-63.41 97.5301-71.3076 116.118-71.3076 116.118-10.5023C116.187-8.97423 117.02-8.21016 118.618-8.21016L118.618-8.21016 122.119-8.00178 122.119 0 105.928 0 105.928-5.89715 105.615-6.00134C102.615-1.13914 98.0858 1.29195 92.0289 1.29195L92.0289 1.29195C84.4161 1.29195 79.0816-1.23639 76.0253-6.29307L76.0253-6.29307C73.219-10.9052 71.816-16.5454 71.816-23.2135L71.816-23.2135C71.816-31.8821 73.9692-38.8143 78.2758-44.0098 82.5684-49.2053 88.5489-51.8032 96.2173-51.8032ZM104.427-15.6076 104.427-15.6076 104.427-41.5093C102.024-42.5789 99.4888-43.1138 96.8216-43.1138L96.8216-43.1138C92.4179-43.1138 89.2018-41.3426 87.1736-37.8001 85.1315-34.2716 84.1104-29.7706 84.1104-24.2971L84.1104-24.2971C84.1104-13.1002 87.7154-7.50167 94.9253-7.50167L94.9253-7.50167C97.662-7.50167 99.9264-8.28658 101.719-9.85636 103.525-11.4262 104.427-13.3432 104.427-15.6076ZM153.03-51.8032 153.03-51.8032C158.031-51.8032 161.997-50.5877 164.928-48.1566 167.873-45.7254 169.346-42.308 169.346-37.9043L169.346-37.9043C169.346-34.973 168.707-32.3891 167.429-30.1526 166.165-27.916 164.602-26.1656 162.74-24.9014 160.865-23.6371 158.594-22.6023 155.926-21.7965L155.926-21.7965C151.467-20.4629 146.438-19.7961 140.84-19.7961L140.84-19.7961C141.034-16.2675 142.132-13.4197 144.132-11.2525 146.133-9.08536 149.203-8.00178 153.343-8.00178 157.468-8.00178 161.601-9.46738 165.741-12.3986L165.741-12.3986 169.534-4.29262C168.2-3.09792 165.949-1.86847 162.782-0.604301 159.615 0.65987 155.996 1.29195 151.926 1.29195L151.926 1.29195C143.799 1.29195 137.832-0.958547 134.026-5.45955 130.233-9.96055 128.337-16.1425 128.337-24.0054 128.337-31.8681 130.504-38.4669 134.838-43.8014 139.173-49.136 145.237-51.8032 153.03-51.8032ZM148.487-28.9648C150.918-29.3955 153.169-30.3609 155.239-31.8613 157.309-33.3616 158.344-35.1468 158.344-37.2166L158.344-37.2166C158.344-41.2732 156.343-43.3013 152.342-43.3013L152.342-43.3013C148.605-43.3013 145.737-41.8218 143.736-38.8628 141.736-35.8899 140.631-32.3405 140.423-28.2146L140.423-28.2146C143.368-28.2703 146.056-28.5203 148.487-28.9648ZM176.331-71.3076 194.252-71.3076 194.252-8.29352 199.94-8.00178 199.94 0 176.143 0 176.143-7.60586 179.436-7.89759C181.367-8.10597 182.332-9.17565 182.332-11.1066L182.332-11.1066 182.332-60.4093C182.332-61.8819 181.499-62.6806 179.832-62.8057L179.832-62.8057 176.331-63.014 176.331-71.3076ZM215.244-60.9094 215.244-60.9094 221.745-60.9094 221.745-50.3029 235.061-50.3029 234.061-41.9052 221.745-41.9052 221.745-15.6076C221.745-12.6764 222.281-10.6274 223.35-9.46044 224.419-8.29352 226.073-7.71005 228.309-7.71005 230.533-7.71005 232.783-8.40464 235.061-9.79385L235.061-9.79385 238.061-2.10464C234.727 0.229218 230.491 1.39614 225.35 1.39614L225.35 1.39614C222.35 1.39614 219.814 1.01412 217.744 0.250056 215.675-0.514004 214.139-1.36141 213.139-2.29218 212.139-3.23683 211.374-4.60519 210.847-6.39726 210.32-8.20323 210.02-9.62021 209.951-10.6482 209.882-11.6901 209.847-13.2113 209.847-15.2117L209.847-15.2117 209.847-41.9052 202.741-41.9052 203.741-49.2193C206.881-49.4833 209.249-50.5946 210.847-52.5534 212.445-54.5261 213.91-57.3113 215.244-60.9094ZM286.772-48.3024 286.772-48.3024 286.772-11.1066C286.772-10.037 286.954-9.30068 287.314-8.89782 287.675-8.49496 288.329-8.26574 289.273-8.21016L289.273-8.21016 292.461-8.00178 292.461 0 276.562 0 276.562-5.79296 276.27-5.89715C272.936-1.10441 268.366 1.29195 262.559 1.29195L262.559 1.29195C255.751 1.29195 250.716-0.875195 247.451-5.20949 244.186-9.54379 242.554-15.4757 242.554-23.0051L242.554-23.0051C242.554-32.0765 244.757-39.1477 249.16-44.2182 253.563-49.2749 260.162-51.8032 268.956-51.8032L268.956-51.8032C274.624-51.8032 280.563-50.6363 286.772-48.3024ZM275.166-15.8994 275.166-15.8994 275.166-41.801C273.29-42.6762 270.721-43.1138 267.455-43.1138L267.455-43.1138C262.996-43.1138 259.766-41.3148 257.766-37.7167 255.765-34.1049 254.765-29.333 254.765-23.4011L254.765-23.4011C254.765-12.607 258.23-7.20994 265.163-7.20994L265.163-7.20994C268.095-7.20994 270.492-8.09208 272.352-9.85636 274.228-11.6207 275.166-13.635 275.166-15.8994Z" fill="#0070C0" transform="matrix(1 0 0 1.00136 310.858 253.72)"/></g></g></g></g><g clip-path="url(#clip6)"><g clip-path="url(#clip7)"><path d="M29.5457 122.997 30.8772 122.997C46.9353 121.45 54.4603 116.906 63.3186 103.617L94.2197 56.8922C105.517 39.7217 120.909 30.6444 141.61 30.2029L142.942 30.4185 142.942 48.1384 141.61 48.1384C125.444 49.8002 118.027 54.3405 109.162 67.5183L78.2677 114.248C66.8646 131.527 51.4722 140.496 30.8772 140.938L29.5457 140.717 29.5457 122.997ZM29.5457 30.4185 30.8772 30.2029C53.4609 30.6444 71.4015 42.2683 81.3739 62.7555L67.9702 82.9141C65.4219 61.4275 51.5869 50.1322 30.8755 48.1384L29.544 48.1384 29.544 30.4185ZM142.942 140.717 141.61 140.938C118.908 140.496 100.969 128.646 91.1118 108.38L104.515 88.2315C107.062 109.713 120.791 120.897 141.61 122.997L142.942 122.997 142.942 140.717Z" fill="#0070C0" transform="matrix(1 0 0 1.00136 491.969 89.3017)"/><path d="M14.5052 64.7061C23.465 60.4938 33.8449 60.1573 43.5141 64.7061L43.5184 64.7061C53.189 69.2535 63.566 68.917 72.5259 64.7061 81.4901 60.4938 91.8685 60.1573 101.532 64.7061L101.542 64.7061C111.207 69.2535 121.587 68.917 130.547 64.7061L130.547 49.0681C121.587 53.2804 111.207 53.6169 101.542 49.0681L101.532 49.0681C91.8685 44.5207 81.4901 44.8572 72.5259 49.0681 63.566 53.2804 53.1876 53.6169 43.5184 49.0681L43.5141 49.0681C33.8435 44.5207 23.465 44.8572 14.5052 49.0681L14.5052 64.7061Z" fill="#0070C0" transform="matrix(1 0 0 1.00136 628.701 102.362)"/><path d="M14.5052 33.433C23.465 29.2192 33.8449 28.8856 43.5141 33.433L43.5184 33.433C53.189 37.9818 63.566 37.6453 72.5259 33.433 81.4901 29.2192 91.8685 28.8856 101.532 33.433L101.542 33.433C111.207 37.9818 121.587 37.6453 130.547 33.433L130.547 17.792C121.587 22.0029 111.207 22.3394 101.542 17.792L101.532 17.792C91.8685 13.2432 81.4901 13.5797 72.5259 17.792 63.566 22.0029 53.1876 22.3394 43.5184 17.792L43.5141 17.792C33.8435 13.2432 23.465 13.5797 14.5052 17.792L14.5052 33.433Z" fill="#0070C0" transform="matrix(1 0 0 1.00136 628.701 100.65)"/><path d="M14.5052 127.26C23.465 123.047 33.8449 122.712 43.5141 127.26L43.5184 127.26C53.189 131.807 63.566 131.472 72.5259 127.26 81.4901 123.047 91.8685 122.712 101.532 127.26L101.542 127.26C111.207 131.807 121.587 131.472 130.547 127.26L130.547 111.625C121.587 115.837 111.207 116.172 101.542 111.625L101.532 111.625C91.8685 107.077 81.4901 107.412 72.5259 111.625 63.566 115.837 53.1876 116.172 43.5184 111.625L43.5141 111.625C33.8435 107.077 23.465 107.412 14.5052 111.625L14.5052 127.26Z" fill="#0070C0" transform="matrix(1 0 0 1.00136 628.701 102.362)"/><path d="M14.5052 95.988C23.465 91.7742 33.8449 91.4377 43.5141 95.988L43.5184 95.988C53.189 100.537 63.566 100.202 72.5259 95.988 81.4901 91.7742 91.8685 91.4377 101.532 95.988L101.542 95.988C111.207 100.537 121.587 100.202 130.547 95.988L130.547 80.3456C121.587 84.5564 111.207 84.893 101.542 80.3456L101.532 80.3456C91.8685 75.7968 81.4901 76.1333 72.5259 80.3456 63.566 84.5564 53.1876 84.893 43.5184 80.3456L43.5141 80.3456C33.8435 75.7968 23.465 76.1333 14.5052 80.3456L14.5052 95.988Z" fill="#0070C0" transform="matrix(1 0 0 1.00136 628.701 102.362)"/><path d="M-266.864-51.8032-266.864-51.8032C-263.988-51.8032-261.252-51.4073-258.654-50.6155L-258.654-50.6155-258.654-60.7219C-258.654-62.1805-259.522-62.9793-261.258-63.1182L-261.258-63.1182-265.551-63.41-265.551-71.3076-246.963-71.3076-246.963-10.5023C-246.895-8.97423-246.061-8.21016-244.463-8.21016L-244.463-8.21016-240.962-8.00178-240.962 0-257.153 0-257.153-5.89715-257.466-6.00134C-260.466-1.13914-264.995 1.29195-271.052 1.29195L-271.052 1.29195C-278.664 1.29195-283.999-1.23639-287.056-6.29307L-287.056-6.29307C-289.863-10.9052-291.265-16.5454-291.265-23.2135L-291.265-23.2135C-291.265-31.8821-289.112-38.8143-284.805-44.0098-280.513-49.2053-274.532-51.8032-266.864-51.8032ZM-258.654-15.6076-258.654-15.6076-258.654-41.5093C-261.056-42.5789-263.592-43.1138-266.259-43.1138L-266.259-43.1138C-270.662-43.1138-273.88-41.3426-275.907-37.8001-277.949-34.2716-278.971-29.7706-278.971-24.2971L-278.971-24.2971C-278.971-13.1002-275.366-7.50167-268.156-7.50167L-268.156-7.50167C-265.42-7.50167-263.155-8.28658-261.362-9.85636-259.556-11.4262-258.654-13.3432-258.654-15.6076ZM-234.952-50.3029-217.053-50.3029-217.053-8.29352-211.343-8.00178-211.343 0-235.161 0-235.161-7.60586-231.848-7.89759C-229.916-8.10597-228.951-9.17565-228.951-11.1066L-228.951-11.1066-228.951-38.9045C-228.951-40.0437-229.132-40.8147-229.493-41.2175-229.868-41.6066-230.52-41.801-231.452-41.801L-231.452-41.801-234.952-42.0094-234.952-50.3029ZM-229.66-58.9715C-231.049-60.3328-231.743-62.0832-231.743-64.2226-231.743-66.3481-231.049-68.1262-229.66-69.5572-228.257-71.0019-226.423-71.7243-224.158-71.7243-221.881-71.7243-220.026-71.0019-218.595-69.5572-217.163-68.1262-216.448-66.3481-216.448-64.2226-216.448-62.0832-217.163-60.3328-218.595-58.9715-220.026-57.5962-221.881-56.9085-224.158-56.9085-226.423-56.9085-228.257-57.5962-229.66-58.9715ZM-161.044-0.10419C-161.642 7.30023-163.774 12.7389-167.441 16.2119-171.109 19.6711-176.839 21.4006-184.633 21.4006-192.44 21.4006-198.546 20.3031-202.949 18.1082L-202.949 18.1082-202.949 4.20927-193.447 3.39659-193.447 8.21016C-193.447 10.0022-192.614 11.2178-190.947 11.8568-189.28 12.4819-186.981 12.7945-184.049 12.7945L-184.049 12.7945C-179.771 12.7945-176.77 11.5165-175.047 8.96033-173.311 6.39032-172.443 2.77145-172.443-1.89626L-172.443-1.89626-172.443-7.39748C-175.638-3.66055-180.069-1.79207-185.737-1.79207L-185.737-1.79207C-189.21-1.79207-192.26-2.45888-194.885-3.79251-197.525-5.12614-199.581-6.93211-201.053-9.21039L-201.053-9.21039C-203.915-13.7392-205.346-19.0737-205.346-25.214L-205.346-25.214C-205.346-33.9382-202.977-40.5507-198.24-45.0517-193.503-49.5527-187.203-51.8032-179.34-51.8032L-179.34-51.8032C-172.811-51.8032-166.643-50.5738-160.836-48.1149L-160.836-48.1149-160.836-11.0025C-160.836-5.33452-160.905-1.70177-161.044-0.10419L-161.044-0.10419ZM-172.443-20.4004-172.443-20.4004-172.443-41.9052C-174.776-42.711-177.444-43.1138-180.444-43.1138L-180.444-43.1138C-184.515-43.1138-187.633-41.6134-189.801-38.6128-191.968-35.6121-193.051-31.5418-193.051-26.4017L-193.051-26.4017C-193.051-15.8716-189.578-10.6065-182.632-10.6065L-182.632-10.6065C-179.771-10.6065-177.354-11.4887-175.381-13.253-173.422-15.0172-172.443-17.3997-172.443-20.4004ZM-150.934-50.3029-133.034-50.3029-133.034-8.29352-127.324-8.00178-127.324 0-151.142 0-151.142-7.60586-147.829-7.89759C-145.898-8.10597-144.932-9.17565-144.932-11.1066L-144.932-11.1066-144.932-38.9045C-144.932-40.0437-145.113-40.8147-145.474-41.2175-145.849-41.6066-146.502-41.801-147.433-41.801L-147.433-41.801-150.934-42.0094-150.934-50.3029ZM-145.641-58.9715C-147.03-60.3328-147.725-62.0832-147.725-64.2226-147.725-66.3481-147.03-68.1262-145.641-69.5572-144.238-71.0019-142.404-71.7243-140.14-71.7243-137.861-71.7243-136.007-71.0019-134.576-69.5572-133.145-68.1262-132.43-66.3481-132.43-64.2226-132.43-62.0832-133.145-60.3328-134.576-58.9715-136.007-57.5962-137.861-56.9085-140.14-56.9085-142.404-56.9085-144.238-57.5962-145.641-58.9715ZM-110.429-60.9094-110.429-60.9094-103.927-60.9094-103.927-50.3029-90.6119-50.3029-91.6121-41.9052-103.927-41.9052-103.927-15.6076C-103.927-12.6764-103.392-10.6274-102.323-9.46044-101.253-8.29352-99.5999-7.71005-97.3634-7.71005-95.1406-7.71005-92.8901-8.40464-90.6119-9.79385L-90.6119-9.79385-87.6112-2.10464C-90.9453 0.229218-95.1823 1.39614-100.322 1.39614L-100.322 1.39614C-103.323 1.39614-105.858 1.01412-107.928 0.250056-109.998-0.514004-111.533-1.36141-112.533-2.29218-113.534-3.23683-114.298-4.60519-114.826-6.39726-115.353-8.20323-115.652-9.62021-115.722-10.6482-115.791-11.6901-115.826-13.2113-115.826-15.2117L-115.826-15.2117-115.826-41.9052-122.932-41.9052-121.931-49.2193C-118.792-49.4833-116.423-50.5946-114.826-52.5534-113.228-54.5261-111.762-57.3113-110.429-60.9094ZM-38.9003-48.3024-38.9003-48.3024-38.9003-11.1066C-38.9003-10.037-38.7197-9.30068-38.3586-8.89782-37.9974-8.49496-37.3444-8.26574-36.3998-8.21016L-36.3998-8.21016-33.2116-8.00178-33.2116 0-49.111 0-49.111-5.79296-49.4027-5.89715C-52.7368-1.10441-57.3072 1.29195-63.1141 1.29195L-63.1141 1.29195C-69.9212 1.29195-74.9569-0.875195-78.2216-5.20949-81.4863-9.54379-83.1185-15.4757-83.1185-23.0051L-83.1185-23.0051C-83.1185-32.0765-80.9166-39.1477-76.5129-44.2182-72.1092-49.2749-65.5104-51.8032-56.7168-51.8032L-56.7168-51.8032C-51.0489-51.8032-45.1101-50.6363-38.9003-48.3024ZM-50.5071-15.8994-50.5071-15.8994-50.5071-41.801C-52.3825-42.6762-54.9525-43.1138-58.2171-43.1138L-58.2171-43.1138C-62.6765-43.1138-65.9064-41.3148-67.9068-37.7167-69.9073-34.1049-70.9075-29.333-70.9075-23.4011L-70.9075-23.4011C-70.9075-12.607-67.4415-7.20994-60.5093-7.20994L-60.5093-7.20994C-57.578-7.20994-55.1817-8.09208-53.3202-9.85636-51.4448-11.6207-50.5071-13.635-50.5071-15.8994ZM-27.1144-71.3076-9.19372-71.3076-9.19372-8.29352-3.50495-8.00178-3.50495 0-27.3019 0-27.3019-7.60586-24.0095-7.89759C-22.0785-8.10597-21.113-9.17565-21.113-11.1066L-21.113-11.1066-21.113-60.4093C-21.113-61.8819-21.9466-62.6806-23.6136-62.8057L-23.6136-62.8057-27.1144-63.014-27.1144-71.3076ZM27.802-51.8032 27.802-51.8032C32.8031-51.8032 36.7692-50.5877 39.7005-48.1566 42.6455-45.7254 44.1182-42.308 44.1182-37.9043L44.1182-37.9043C44.1182-34.973 43.4791-32.3891 42.2011-30.1526 40.9368-27.916 39.374-26.1656 37.5125-24.9014 35.6371-23.6371 33.3658-22.6023 30.6985-21.7965L30.6985-21.7965C26.2392-20.4629 21.2104-19.7961 15.6118-19.7961L15.6118-19.7961C15.8063-16.2675 16.9038-13.4197 18.9042-11.2525 20.9047-9.08536 23.9747-8.00178 28.1146-8.00178 32.2405-8.00178 36.3733-9.46738 40.5132-12.3986L40.5132-12.3986 44.3057-4.29262C42.9721-3.09792 40.7216-1.86847 37.5542-0.604301 34.3868 0.65987 30.7679 1.29195 26.6976 1.29195L26.6976 1.29195C18.5708 1.29195 12.6042-0.958547 8.7978-5.45955 5.00528-9.96055 3.10903-16.1425 3.10903-24.0054 3.10903-31.8681 5.27618-38.4669 9.61048-43.8014 13.9448-49.136 20.0086-51.8032 27.802-51.8032ZM23.2594-28.9648C25.6905-29.3955 27.941-30.3609 30.0109-31.8613 32.0807-33.3616 33.1157-35.1468 33.1157-37.2166L33.1157-37.2166C33.1157-41.2732 31.1153-43.3013 27.1144-43.3013L27.1144-43.3013C23.3775-43.3013 20.5087-41.8218 18.5083-38.8628 16.5078-35.8899 15.4034-32.3405 15.1951-28.2146L15.1951-28.2146C18.1401-28.2703 20.8282-28.5203 23.2594-28.9648ZM96.2173-51.8032 96.2173-51.8032C99.0929-51.8032 101.83-51.4073 104.427-50.6155L104.427-50.6155 104.427-60.7219C104.427-62.1805 103.559-62.9793 101.823-63.1182L101.823-63.1182 97.5301-63.41 97.5301-71.3076 116.118-71.3076 116.118-10.5023C116.187-8.97423 117.02-8.21016 118.618-8.21016L118.618-8.21016 122.119-8.00178 122.119 0 105.928 0 105.928-5.89715 105.615-6.00134C102.615-1.13914 98.0858 1.29195 92.0289 1.29195L92.0289 1.29195C84.4161 1.29195 79.0816-1.23639 76.0253-6.29307L76.0253-6.29307C73.219-10.9052 71.816-16.5454 71.816-23.2135L71.816-23.2135C71.816-31.8821 73.9692-38.8143 78.2758-44.0098 82.5684-49.2053 88.5489-51.8032 96.2173-51.8032ZM104.427-15.6076 104.427-15.6076 104.427-41.5093C102.024-42.5789 99.4888-43.1138 96.8216-43.1138L96.8216-43.1138C92.4179-43.1138 89.2018-41.3426 87.1736-37.8001 85.1315-34.2716 84.1104-29.7706 84.1104-24.2971L84.1104-24.2971C84.1104-13.1002 87.7154-7.50167 94.9253-7.50167L94.9253-7.50167C97.662-7.50167 99.9264-8.28658 101.719-9.85636 103.525-11.4262 104.427-13.3432 104.427-15.6076ZM153.03-51.8032 153.03-51.8032C158.031-51.8032 161.997-50.5877 164.928-48.1566 167.873-45.7254 169.346-42.308 169.346-37.9043L169.346-37.9043C169.346-34.973 168.707-32.3891 167.429-30.1526 166.165-27.916 164.602-26.1656 162.74-24.9014 160.865-23.6371 158.594-22.6023 155.926-21.7965L155.926-21.7965C151.467-20.4629 146.438-19.7961 140.84-19.7961L140.84-19.7961C141.034-16.2675 142.132-13.4197 144.132-11.2525 146.133-9.08536 149.203-8.00178 153.343-8.00178 157.468-8.00178 161.601-9.46738 165.741-12.3986L165.741-12.3986 169.534-4.29262C168.2-3.09792 165.949-1.86847 162.782-0.604301 159.615 0.65987 155.996 1.29195 151.926 1.29195L151.926 1.29195C143.799 1.29195 137.832-0.958547 134.026-5.45955 130.233-9.96055 128.337-16.1425 128.337-24.0054 128.337-31.8681 130.504-38.4669 134.838-43.8014 139.173-49.136 145.237-51.8032 153.03-51.8032ZM148.487-28.9648C150.918-29.3955 153.169-30.3609 155.239-31.8613 157.309-33.3616 158.344-35.1468 158.344-37.2166L158.344-37.2166C158.344-41.2732 156.343-43.3013 152.342-43.3013L152.342-43.3013C148.605-43.3013 145.737-41.8218 143.736-38.8628 141.736-35.8899 140.631-32.3405 140.423-28.2146L140.423-28.2146C143.368-28.2703 146.056-28.5203 148.487-28.9648ZM176.331-71.3076 194.252-71.3076 194.252-8.29352 199.94-8.00178 199.94 0 176.143 0 176.143-7.60586 179.436-7.89759C181.367-8.10597 182.332-9.17565 182.332-11.1066L182.332-11.1066 182.332-60.4093C182.332-61.8819 181.499-62.6806 179.832-62.8057L179.832-62.8057 176.331-63.014 176.331-71.3076ZM215.244-60.9094 215.244-60.9094 221.745-60.9094 221.745-50.3029 235.061-50.3029 234.061-41.9052 221.745-41.9052 221.745-15.6076C221.745-12.6764 222.281-10.6274 223.35-9.46044 224.419-8.29352 226.073-7.71005 228.309-7.71005 230.533-7.71005 232.783-8.40464 235.061-9.79385L235.061-9.79385 238.061-2.10464C234.727 0.229218 230.491 1.39614 225.35 1.39614L225.35 1.39614C222.35 1.39614 219.814 1.01412 217.744 0.250056 215.675-0.514004 214.139-1.36141 213.139-2.29218 212.139-3.23683 211.374-4.60519 210.847-6.39726 210.32-8.20323 210.02-9.62021 209.951-10.6482 209.882-11.6901 209.847-13.2113 209.847-15.2117L209.847-15.2117 209.847-41.9052 202.741-41.9052 203.741-49.2193C206.881-49.4833 209.249-50.5946 210.847-52.5534 212.445-54.5261 213.91-57.3113 215.244-60.9094ZM286.772-48.3024 286.772-48.3024 286.772-11.1066C286.772-10.037 286.954-9.30068 287.314-8.89782 287.675-8.49496 288.329-8.26574 289.273-8.21016L289.273-8.21016 292.461-8.00178 292.461 0 276.562 0 276.562-5.79296 276.27-5.89715C272.936-1.10441 268.366 1.29195 262.559 1.29195L262.559 1.29195C255.751 1.29195 250.716-0.875195 247.451-5.20949 244.186-9.54379 242.554-15.4757 242.554-23.0051L242.554-23.0051C242.554-32.0765 244.757-39.1477 249.16-44.2182 253.563-49.2749 260.162-51.8032 268.956-51.8032L268.956-51.8032C274.624-51.8032 280.563-50.6363 286.772-48.3024ZM275.166-15.8994 275.166-15.8994 275.166-41.801C273.29-42.6762 270.721-43.1138 267.455-43.1138L267.455-43.1138C262.996-43.1138 259.766-41.3148 257.766-37.7167 255.765-34.1049 254.765-29.333 254.765-23.4011L254.765-23.4011C254.765-12.607 258.23-7.20994 265.163-7.20994L265.163-7.20994C268.095-7.20994 270.492-8.09208 272.352-9.85636 274.228-11.6207 275.166-13.635 275.166-15.8994Z" fill="#0070C0" transform="matrix(1 0 0 1.00136 640.858 347.72)"/></g></g></g></svg>